<svg xmlns="http://www.w3.org/2000/svg" viewBox="0 0 512 512"><!--! Font Awesome Pro 6.1.2 by @fontawesome - https://fontawesome.com License - https://fontawesome.com/license (Commercial License) Copyright 2022 Fonticons, Inc. --><path d="M32 80C32 53.49 53.49 32 80 32H432C458.5 32 480 53.49 480 80V209.1C465.5 200.8 449.3 195.1 431.1 192.1C431.1 192.7 432 192.3 432 192V160C432 142.3 417.7 128 400 128H304C286.3 128 272 142.3 272 160V192H240V160C240 142.3 225.7 128 208 128H112C94.33 128 80 142.3 80 160V192C80 192.3 80.01 192.7 80.02 192.1C62.7 195.1 46.46 200.8 32 209.1V80zM0 320C0 266.1 42.98 224 96 224H416C469 224 512 266.1 512 320V448C512 465.7 497.7 480 480 480C462.3 480 448 465.7 448 448V416H64V448C64 465.7 49.67 480 32 480C14.33 480 0 465.7 0 448V320z"/></svg>