<svg xmlns="http://www.w3.org/2000/svg" viewBox="0 0 448 512"><!--! Font Awesome Pro 6.1.2 by @fontawesome - https://fontawesome.com License - https://fontawesome.com/license (Commercial License) Copyright 2022 Fonticons, Inc. --><path d="M111.1 96H127.1V40C127.1 17.91 145.9 0 167.1 0H280C302.1 0 320 17.91 320 40V96H336C357.4 96 376.3 110.2 382.2 130.8L446.2 354.8C450.3 369.3 447.4 384.9 438.3 396.9C429.3 408.9 415.1 416 400 416H47.1C32.94 416 18.75 408.9 9.679 396.9C.6086 384.9-2.291 369.3 1.847 354.8L65.85 130.8C71.73 110.2 90.57 96 112 96H111.1zM272 48H175.1V96H272V48zM288 448C288 483.3 259.3 512 223.1 512C188.7 512 159.1 483.3 159.1 448H288z"/></svg>