<svg xmlns="http://www.w3.org/2000/svg" viewBox="0 0 512 512"><!--! Font Awesome Pro 6.1.2 by @fontawesome - https://fontawesome.com License - https://fontawesome.com/license (Commercial License) Copyright 2022 Fonticons, Inc. --><path d="M256 0C397.4 0 512 114.6 512 256C512 397.4 397.4 512 256 512C114.6 512 0 397.4 0 256C0 114.6 114.6 0 256 0zM288 66.65V128C288 145.7 273.7 160 256 160C238.3 160 224 145.7 224 128V66.65C143.6 80.14 80.14 143.6 66.65 224H128C145.7 224 160 238.3 160 256C160 273.7 145.7 288 128 288H66.65C80.14 368.4 143.6 431.9 224 445.3V384C224 366.3 238.3 352 256 352C273.7 352 288 366.3 288 384V445.3C368.4 431.9 431.9 368.4 445.3 288H384C366.3 288 352 273.7 352 256C352 238.3 366.3 224 384 224H445.3C431.9 143.6 368.4 80.14 288 66.65z"/></svg>