<svg xmlns="http://www.w3.org/2000/svg" viewBox="0 0 576 512"><!--! Font Awesome Pro 6.1.2 by @fontawesome - https://fontawesome.com License - https://fontawesome.com/license (Commercial License) Copyright 2022 Fonticons, Inc. --><path d="M256 40C256 53.26 266.7 64 280 64H296C309.3 64 320 53.26 320 40V16C320 7.164 327.2 .0006 336 .0006C344.8 .0006 352 7.164 352 16V40C352 48.59 350.1 56.73 346.6 64H416C429.3 64 440 53.26 440 40V16C440 7.164 447.2 .0006 456 .0006C464.8 .0006 472 7.164 472 16V40C472 61.66 459.7 80.44 441.7 89.76C442.3 90.3 442.8 90.85 443.4 91.4L480.7 128.7C484.1 110.1 500.4 96 520 96C542.1 96 560 113.9 560 136C560 158.1 542.1 176 520 176C517.2 176 514.5 175.7 511.9 175.2C511.1 176.4 512 177.5 512 178.7C512 203.7 491.7 224 466.7 224H410.7L384 304V480C384 497.7 369.7 512 352 512H320C302.3 512 288 497.7 288 480V368H251.7C222.9 368 196.4 358.2 175.4 341.6C173.3 358.5 165.6 374.3 153.5 386.4L142.9 396.1C138.3 401.6 136.7 408.5 138.9 414.6L158.2 469.4C165.6 490.2 150.1 512 128 512H94.09C80.53 512 68.43 503.4 63.92 490.6L48.37 446.6C36.93 414.2 40.1 378.8 58.39 350.3C65.02 339.4 65.03 324.9 56 315.9C53.04 312.9 50.33 309.8 47.88 306.4C46.58 319.3 35.18 328.9 22.16 327.9C8.945 326.9-.9448 315.4 .072 302.2L2.39 272C6.558 217.8 51.74 176 106.1 176H192C192.6 176 193.2 176 193.7 176C194.6 176 195.4 176 196.3 176H302.4L312 144H273.1C264 144 256 135.1 256 126C256 117.8 261.6 110.6 269.6 108.6L320 96H280C249.1 96 224 70.93 224 40V16C224 7.164 231.2 0 240 0C248.8 0 256 7.164 256 16V40zM400 128C391.2 128 384 135.2 384 144C384 152.8 391.2 160 400 160C408.8 160 416 152.8 416 144C416 135.2 408.8 128 400 128z"/></svg>