<svg xmlns="http://www.w3.org/2000/svg" viewBox="0 0 512 512"><!--! Font Awesome Pro 6.1.2 by @fontawesome - https://fontawesome.com License - https://fontawesome.com/license (Commercial License) Copyright 2022 Fonticons, Inc. --><path d="M400.7 223.1C400.3 223.1 400 224.3 400 224.7V248.7C400 255.3 402.8 261.5 407.2 266.4C427.6 289.1 440 319.1 440 352C440 422.7 382.7 480 312 480H196C87.75 480 0 392.2 0 283.1V278.6C0 266.1 10.13 255.1 22.63 255.1C28.63 255.1 34.38 258.4 38.63 262.6L54.01 278C60.18 284.2 69.2 286.5 77.58 284.1L250.4 234.8C260.7 231.8 266.1 220.3 258.1 213C237.2 193.1 224 166.5 224 136C224 78.56 270.6 32 328 32C381.8 32 426.1 72.91 431.5 125.3C431.5 125.7 431.8 125.1 432.1 126C442.7 127.3 453.3 127.3 463.9 126L499.2 121.6C505.1 120.8 512 126 512 132.9C512 183.2 471.2 224 420.9 224L400.7 223.1zM344 111.1C330.7 111.1 320 122.7 320 135.1C320 149.3 330.7 159.1 344 159.1C357.3 159.1 368 149.3 368 135.1C368 122.7 357.3 111.1 344 111.1zM340.6 296.9C341.1 288.1 334.3 280.5 325.5 280C316.7 279.5 309.1 286.2 308.6 295.1C306.2 336.3 276 374.1 231.3 385.2C190.1 395.3 150.9 380.6 127.7 351.7C122.1 344.8 112 343.7 105.2 349.3C98.27 354.8 97.16 364.9 102.7 371.7C133.8 410.5 186.7 429.3 239.1 416.3C297 401.8 337.3 352.5 340.6 296.9H340.6z"/></svg>