<svg xmlns="http://www.w3.org/2000/svg" viewBox="0 0 640 512"><!--! Font Awesome Pro 6.1.2 by @fontawesome - https://fontawesome.com License - https://fontawesome.com/license (Commercial License) Copyright 2022 Fonticons, Inc. --><path d="M382.4 32H383.1C472.4 32 543.1 103.6 543.1 192V311.4C534.6 316.9 523.7 320 511.1 320C491.1 320 472.5 309.1 460.8 294.4C455.5 287.3 445.4 285.9 438.4 291.2C431.3 296.5 429.9 306.5 435.2 313.6C441.8 322.3 449.8 329.9 458.9 336C465.4 340.3 472.5 343.9 479.1 346.5C490 350.1 500.8 352 512 352C523.2 352 533.1 350.1 543.1 346.5C554.2 342.9 563.7 337.6 572 330.9C573.6 329.7 575.2 328.3 576.7 326.1C578 325.7 579.4 324.4 580.7 323.1C586.9 316.9 596.9 316.8 603.2 322.1C609.5 329.1 609.6 339.3 603.4 345.6C587.4 361.1 566.9 374.1 543.1 379.1V398.6C543.1 408.2 551.8 416 561.4 416C568 416 574.1 412.3 577 406.4L579.4 401.7C587.3 385.9 606.5 379.5 622.3 387.4C638.1 395.3 644.5 414.5 636.6 430.3L634.3 434.1C620.5 462.6 592.3 480 561.4 480C516.5 480 479.1 443.5 479.1 398.6V379.1C454.8 373.5 432.7 359.6 415.1 340.7V480C415.1 497.7 401.7 512 383.1 512H319.1C302.3 512 287.1 497.7 287.1 480V409.1C272.7 413.9 256.6 416 239.1 416C223.4 416 207.3 413.9 191.1 409.1V480C191.1 497.7 177.7 512 159.1 512H95.1C78.32 512 63.1 497.7 63.1 480V344.7C61.44 349.4 58.54 353.9 55.32 358.2L43.2 374.4C35.24 385 20.2 387.2 9.598 379.2C-1.006 371.2-3.155 356.2 4.798 345.6L16.92 329.4C22.59 321.9 26.49 313.1 28.35 303.9C30.77 291.7 31.1 279.4 31.1 267V248C31.1 175.8 67.43 111.9 121.9 72.64C138.6 59.57 157.5 49.22 178 42.23C166.5 62.9 159.1 86.69 159.1 112C159.1 191.5 224.5 256 303.1 256C312.8 256 319.1 248.8 319.1 240C319.1 231.2 312.8 224 303.1 224C242.1 224 191.1 173.9 191.1 112C191.1 50.14 242.1 .0013 303.1 0C334.5 0 362.2 12.21 382.4 32V32zM464 224C472.8 224 480 216.8 480 208C480 199.2 472.8 192 464 192C455.2 192 448 199.2 448 208C448 216.8 455.2 224 464 224z"/></svg>