<svg xmlns="http://www.w3.org/2000/svg" viewBox="0 0 512 512"><!--! Font Awesome Pro 6.1.2 by @fontawesome - https://fontawesome.com License - https://fontawesome.com/license (Commercial License) Copyright 2022 Fonticons, Inc. --><path d="M339.8 7.544L355.6 39.18C362.7 53.42 379.2 60.26 394.3 55.22L461.9 32.71C463.3 32.24 464.8 31.1 466.2 31.1C473.8 31.1 480 38.16 480 45.77C480 47.24 479.8 48.71 479.3 50.12L456.8 117.7C451.7 132.8 458.6 149.3 472.8 156.4L504.5 172.2C509.1 174.5 512 179.3 512 184.4C512 189.1 509.6 193.5 505.6 196L407.7 257.2C400.8 261.5 403.9 271.1 411.9 271.1H450.2C457.8 271.1 464 278.2 464 285.8C464 287.2 463.8 288.7 463.3 290.1L454.8 315.6C450.7 327.9 454.5 341.5 464.3 350L498.6 379.4C502 382.3 504 386.6 504 391.1C504 396.6 501 401.7 496.2 404.4L467.4 420.9C455.7 427.6 449.5 440.8 451.7 453.1L455.8 479.1C455.9 479.7 456 480.3 456 480.1C456 488.6 448.8 494.1 441.4 492.2L286.5 451.8C278.3 449.7 269.9 454.2 267.3 462.2L258.8 487.6C257.1 492.6 252.5 496 247.2 496C242.8 496 238.7 493.6 236.5 489.7L183.6 394.4L90.23 487.7C80.86 497.1 65.66 497.1 56.29 487.7C46.92 478.3 46.92 463.1 56.29 453.8L239.3 270.8C242.9 264.6 242 256.6 236.8 251.4C230.5 245.2 220.4 245.2 214.1 251.4L130.1 335.4L22.29 275.5C18.41 273.3 16 269.2 16 264.8C16 259.5 19.37 254.9 24.36 253.2L49.8 244.7C57.79 242.1 62.35 233.7 60.22 225.5L19.8 70.55C17.88 63.19 23.43 56 31.04 56C31.68 56 32.32 56.05 32.95 56.16L58.01 60.34C71.23 62.54 84.41 56.28 91.06 44.65L107.6 15.75C110.3 10.96 115.4 8 120.9 8C125.4 8 129.7 9.962 132.6 13.37L161.1 47.66C170.5 57.54 184.1 61.31 196.4 57.2L221.9 48.71C223.3 48.24 224.8 48 226.2 48C233.8 48 239.1 54.16 239.1 61.77V100.1C239.1 108.1 250.5 111.2 254.8 104.3L315.1 6.415C318.5 2.424 322.9 0 327.6 0C332.7 0 337.5 2.921 339.8 7.545L339.8 7.544z"/></svg>