<svg xmlns="http://www.w3.org/2000/svg" viewBox="0 0 512 512"><!--! Font Awesome Pro 6.1.2 by @fontawesome - https://fontawesome.com License - https://fontawesome.com/license (Commercial License) Copyright 2022 Fonticons, Inc. --><path d="M425.1 281.1L448 304C465.7 321.7 465.7 350.3 448 368C437.9 378.1 423.7 382.8 409.6 380.8L334.5 370.1C328.9 369.3 324.1 375.5 328.1 380.2C342 401 339.3 428.7 321.6 446.4L317.9 450.1C300.1 467.9 272.7 472.4 250.1 461.1L219 445.5C201.3 436.6 181.7 432 161.8 432H145.9L72.97 504.1C63.6 514.3 48.4 514.3 39.03 504.1C29.66 495.6 29.66 480.4 39.03 471L254.5 255.6C258.3 249.4 257.6 241.2 252.2 235.8C245.1 229.5 235.8 229.5 229.6 235.8L80 385.4V350.2C80 330.3 75.38 310.7 66.49 292.1L50.94 261.9C39.63 239.3 44.06 211.9 61.94 194.1L65.58 190.4C83.27 172.7 110.1 169.1 131.8 183.9C136.5 187 142.7 183.1 141.9 177.5L131.2 102.4C129.2 88.3 133.9 74.07 144 64C161.7 46.33 190.3 46.33 208 64L230 86.01C234.4 90.41 241.9 88.33 243.4 82.29L253.6 41.44C259.7 17.09 281.6 0 306.7 0C325 0 342.1 9.143 352.2 24.36L361.7 38.62C365.5 44.24 372.4 46.91 378.9 45.27L399.1 40.23C419.5 35.12 441.1 41.11 456 56C470.9 70.89 476.9 92.5 471.8 112.9L466.7 133.1C465.1 139.6 467.8 146.5 473.4 150.3L487.6 159.8C502.9 169.9 512 186.1 512 205.3C512 230.4 494.9 252.3 470.6 258.4L429.7 268.6C423.7 270.1 421.6 277.6 425.1 281.1L425.1 281.1z"/></svg>