<svg xmlns="http://www.w3.org/2000/svg" viewBox="0 0 640 512"><!--! Font Awesome Pro 6.1.2 by @fontawesome - https://fontawesome.com License - https://fontawesome.com/license (Commercial License) Copyright 2022 Fonticons, Inc. --><path d="M351 24.24C355.3 41.38 344.9 58.76 327.8 63.04L199.8 95.04C182.6 99.33 165.2 88.91 160.1 71.76C156.7 54.62 167.1 37.24 184.2 32.96L312.2 .9552C329.4-3.331 346.8 7.093 351 24.24V24.24zM199.8 191C182.6 195.3 165.2 184.9 160.1 167.8C156.7 150.6 167.1 133.2 184.2 128.1L440.2 64.95C457.4 60.67 474.8 71.09 479 88.24C483.3 105.4 472.9 122.8 455.8 127L199.8 191zM479 184.2C483.3 201.4 472.9 218.8 455.8 223L199.8 287C182.6 291.3 165.2 280.9 160.1 263.8C156.7 246.6 167.1 229.2 184.2 224.1L440.2 160.1C457.4 156.7 474.8 167.1 479 184.2V184.2zM255.1 305.1L303.1 293.1V384H384C401.7 384 416 398.3 416 416V448C416 465.7 401.7 480 384 480H352C352 497.7 337.7 512 319.1 512C302.3 512 287.1 497.7 287.1 480H255.1C238.3 480 223.1 465.7 223.1 448V416C223.1 398.3 238.3 384 255.1 384V305.1zM384 336.1L384 384L336 384V308.7C335.1 308.2 335.1 307.7 336 307.3V303.1L336.2 303.1C337.9 291.3 347.1 280.2 360.2 276.1L440.2 256.1C457.4 252.7 474.8 263.1 479 280.2C483.3 297.4 472.9 314.8 455.8 319L384 336.1zM101.3 36.03C112.3 43.38 115.3 58.28 107.1 69.31C100.6 80.34 85.72 83.32 74.69 75.97L26.69 43.97C15.66 36.62 12.68 21.72 20.03 10.69C27.38-.3417 42.28-3.322 53.31 4.031L101.3 36.03zM565.3 75.97C554.3 83.32 539.4 80.34 532 69.31C524.7 58.28 527.7 43.38 538.7 36.03L586.7 4.031C597.7-3.321 612.6-.3411 619.1 10.69C627.3 21.72 624.3 36.62 613.3 43.97L565.3 75.97zM88 160C101.3 160 112 170.7 112 184C112 197.3 101.3 208 88 208H24C10.75 208 0 197.3 0 184C0 170.7 10.75 160 24 160H88zM616 160C629.3 160 640 170.7 640 184C640 197.3 629.3 208 616 208H552C538.7 208 528 197.3 528 184C528 170.7 538.7 160 552 160H616zM53.31 363.1C42.28 371.3 27.38 368.3 20.03 357.3C12.68 346.3 15.66 331.4 26.69 324L74.69 292C85.72 284.7 100.6 287.7 107.1 298.7C115.3 309.7 112.3 324.6 101.3 331.1L53.31 363.1zM613.3 324C624.3 331.4 627.3 346.3 619.1 357.3C612.6 368.3 597.7 371.3 586.7 363.1L538.7 331.1C527.7 324.6 524.7 309.7 532 298.7C539.4 287.7 554.3 284.7 565.3 292L613.3 324z"/></svg>