<svg xmlns="http://www.w3.org/2000/svg" viewBox="0 0 576 512"><!--! Font Awesome Pro 6.1.2 by @fontawesome - https://fontawesome.com License - https://fontawesome.com/license (Commercial License) Copyright 2022 Fonticons, Inc. --><path d="M0 256C0 149.1 85.96 64 192 64H384C490 64 576 149.1 576 256C576 362 490 448 384 448H192C85.96 448 0 362 0 256zM192 128C121.3 128 64 185.3 64 256C64 326.7 121.3 384 192 384C262.7 384 320 326.7 320 256C320 185.3 262.7 128 192 128zM384 384C454.7 384 512 326.7 512 256C512 185.3 454.7 128 384 128H335.1C365.5 161.1 384 206.8 384 256C384 305.2 365.5 350 335.1 384H384z"/></svg>