<svg xmlns="http://www.w3.org/2000/svg" viewBox="0 0 512 512"><!--! Font Awesome Pro 6.1.2 by @fontawesome - https://fontawesome.com License - https://fontawesome.com/license (Commercial License) Copyright 2022 Fonticons, Inc. --><path d="M96 0H348.2C336.6 12.25 327 26.9 319.5 41.92C299.5 81.99 288 135.1 288 192C288 248.9 299.5 302 319.5 342.1C327 357.1 336.6 371.8 348.2 384H96C42.98 384 0 298 0 192C0 85.96 42.98 0 96 0V0zM188.7 132.7L152 169.4L115.3 132.7C109.1 126.4 98.93 126.4 92.69 132.7C86.44 138.9 86.44 149.1 92.69 155.3L129.4 192L92.69 228.7C86.44 234.9 86.44 245.1 92.69 251.3C98.93 257.6 109.1 257.6 115.3 251.3L152 214.6L188.7 251.3C194.9 257.6 205.1 257.6 211.3 251.3C217.6 245.1 217.6 234.9 211.3 228.7L174.6 192L211.3 155.3C217.6 149.1 217.6 138.9 211.3 132.7C205.1 126.4 194.9 126.4 188.7 132.7zM320 192C320 108.4 346.7 37.28 384 10.93C394 3.85 404.8 0 416 0C469 0 512 85.96 512 192C512 226.1 507.3 259.8 499.2 288C482.6 345.4 451.5 384 416 384C404.8 384 394 380.2 384 373.1C346.7 346.7 320 275.6 320 192zM384 192C384 227.3 398.3 256 416 256C433.7 256 448 227.3 448 192C448 156.7 433.7 128 416 128C398.3 128 384 156.7 384 192zM416 416C460.8 416 492.9 380.8 512 343.1V464C512 490.5 490.5 512 464 512H208C181.5 512 160 490.5 160 464V416H416z"/></svg>