<svg xmlns="http://www.w3.org/2000/svg" viewBox="0 0 512 512"><!--! Font Awesome Pro 6.1.2 by @fontawesome - https://fontawesome.com License - https://fontawesome.com/license (Commercial License) Copyright 2022 Fonticons, Inc. --><path d="M496 0C504.8 0 512 7.164 512 16V40C512 88.6 472.6 128 424 128H400C391.2 128 384 120.8 384 112V88C384 39.4 423.4 0 472 0H496zM316.8 38.63C350.9 72.7 361.7 121.2 349.3 164.5C392.6 152.1 441.1 162.9 475.2 197L486.5 208.3C492.7 214.6 492.7 224.7 486.5 230.1L475.2 242.3C437.7 279.8 376.9 279.8 339.4 242.3L327.2 230.1L295.3 261.1C323.8 264.7 351.5 277 373.4 298.8L384.7 310.2C390.9 316.4 390.9 326.5 384.7 332.8L373.4 344.1C335.9 381.6 275.1 381.6 237.6 344.1L225.4 331.9L193.5 363.8C221.1 366.5 249.7 378.8 271.5 400.7L282.8 411.1C289.1 418.2 289.1 428.4 282.8 434.6L271.5 445.9C234 483.4 173.3 483.4 135.8 445.9L123.5 433.7L54.63 502.6C42.13 515.1 21.87 515.1 9.372 502.6C-3.124 490.1-3.124 469.9 9.372 457.4L78.29 388.5L67.88 378C30.39 340.6 30.39 279.8 67.88 242.3L79.2 230.1C85.44 224.7 95.57 224.7 101.8 230.1L113.1 242.3C134.1 263.3 146.3 289.7 149.7 317.1L180.1 286.6L169.7 276.2C132.2 238.7 132.2 177.9 169.7 140.5L181 129.1C187.3 122.9 197.4 122.9 203.6 129.1L214.1 140.5C235.1 161.4 248.1 187.9 251.5 215.3L281.9 184.8L271.5 174.4C234 136.9 234 76.12 271.5 38.63L282.8 27.31C289.1 21.07 299.2 21.07 305.5 27.31L316.8 38.63z"/></svg>