<svg xmlns="http://www.w3.org/2000/svg" viewBox="0 0 640 512"><!--! Font Awesome Pro 6.1.2 by @fontawesome - https://fontawesome.com License - https://fontawesome.com/license (Commercial License) Copyright 2022 Fonticons, Inc. --><path d="M224.7 150.8C227.4 147.2 230.4 143.7 233.7 140.5L245 129.1C251.3 122.9 261.4 122.9 267.6 129.1L278.1 140.5C299.1 161.4 312.1 187.9 315.5 215.3L345.9 184.8L335.5 174.4C298 136.9 298 76.12 335.5 38.63L346.8 27.31C353.1 21.07 363.2 21.07 369.5 27.31L380.8 38.63C414.9 72.7 425.7 121.2 413.3 164.5C456.6 152.1 505.1 162.9 539.2 197L550.5 208.3C556.7 214.6 556.7 224.7 550.5 230.1L539.2 242.3C501.7 279.8 440.9 279.8 403.4 242.3L391.2 230.1L362.5 258.8L630.8 469.1C641.2 477.3 643.1 492.4 634.9 502.8C626.7 513.2 611.6 515.1 601.2 506.9L9.196 42.89C-1.236 34.71-3.065 19.63 5.112 9.196C13.29-1.236 28.37-3.065 38.81 5.112L224.7 150.8zM560 0C568.8 0 576 7.164 576 16V40C576 88.6 536.6 128 488 128H464C455.2 128 448 120.8 448 112V88C448 39.4 487.4 0 536 0H560zM213.7 317.1L243.2 287.6L293.8 327.5L257.5 363.8C285.1 366.5 313.7 378.8 335.5 400.7L346.8 411.1C353.1 418.2 353.1 428.4 346.8 434.6L335.5 445.9C298 483.4 237.3 483.4 199.8 445.9L187.6 433.7L118.6 502.6C106.1 515.1 85.87 515.1 73.37 502.6C60.88 490.1 60.88 469.9 73.37 457.4L142.3 388.5L131.9 378C94.39 340.6 94.39 279.8 131.9 242.3L143.2 230.1C149.4 224.7 159.6 224.7 165.8 230.1L177.1 242.3C198.1 263.3 210.3 289.7 213.7 317.1L213.7 317.1z"/></svg>